<svg id="Layer_1" data-name="Layer 1" xmlns="http://www.w3.org/2000/svg" viewBox="0 0 224.66 116.03"><title>Routine_Icons</title><path d="M86.05,30.93H103c15.72,0,26.31,9.63,26.31,26.18S118.7,83.34,103,83.34H86.05Zm16.41,47.79c12.89,0,21.46-7.6,21.46-21.61s-8.64-21.54-21.46-21.54H91.2V78.72Z"/><path d="M170.45,66.65h-21.1l-6,16.69H138l19.23-52.41h5.52l19.22,52.41h-5.44ZM159.86,36.39s-1.11,4.32-2,6.78l-7,19h18l-6.86-19c-.89-2.46-2-6.78-2-6.78Z"/><path d="M201.85,60.83l-17.66-29.9h5.88l11.11,19c1.56,2.67,3.2,6.26,3.2,6.26h.15s1.57-3.5,3.21-6.26l11.1-19h5.82l-17.59,29.9V83.34h-5.22Z"/><path d="M57.52,82.6a25.63,25.63,0,0,1-25-24.4A25.58,25.58,0,0,1,57.68,31.74l.1,3.77a21.83,21.83,0,0,0-21.43,22.6A21.81,21.81,0,0,0,58,78.82l.1,3.77Z"/><rect x="56.13" width="3.77" height="16.92"/><rect x="56.13" y="99.11" width="3.77" height="16.92"/><rect x="14.22" y="90.97" width="16.92" height="3.77" transform="translate(-58.9 43.04) rotate(-44.87)"/><rect x="20.07" y="13.71" width="3.77" height="16.92" transform="translate(-9.25 22.06) rotate(-45.09)"/><rect y="56.15" width="16.92" height="3.77"/></svg>