<?xml version="1.0" standalone="no"?>
<!DOCTYPE svg PUBLIC "-//W3C//DTD SVG 20010904//EN"
 "http://www.w3.org/TR/2001/REC-SVG-20010904/DTD/svg10.dtd">
<svg version="1.0" xmlns="http://www.w3.org/2000/svg"
 width="800.000000pt" height="114.000000pt" viewBox="0 0 800.000000 114.000000"
 preserveAspectRatio="xMidYMid meet">

<g transform="translate(0.000000,114.000000) scale(0.100000,-0.100000)"
fill="#ffffff" stroke="none">
<path d="M6250 1134 c0 -2 9 -13 19 -23 43 -43 46 -83 46 -556 0 -247 -3 -470
-7 -495 l-7 -45 62 -4 c34 -2 116 -5 182 -5 100 -1 131 3 186 22 141 49 234
131 279 249 32 81 32 224 1 305 -40 103 -128 169 -256 191 -63 11 -66 10 -92
-15 -29 -26 -102 -76 -142 -98 l-24 -12 7 213 c4 118 10 228 12 245 l6 31
-136 0 c-75 0 -136 -1 -136 -3z m476 -533 c84 -38 119 -115 119 -261 -1 -177
-48 -246 -174 -257 -40 -4 -74 0 -109 11 l-51 17 -7 57 c-8 67 2 320 16 377 5
22 19 48 31 58 29 23 121 22 175 -2z"/>
<path d="M3506 1014 l-59 -65 64 -59 64 -58 61 60 62 60 -65 64 c-36 35 -66
64 -67 63 0 0 -28 -30 -60 -65z"/>
<path d="M235 1008 c-55 -5 -130 -7 -167 -4 -41 3 -68 1 -68 -5 0 -5 7 -12 15
-15 7 -3 22 -27 32 -52 16 -42 18 -85 18 -422 0 -396 -5 -447 -45 -473 -34
-21 -22 -26 53 -24 39 1 149 -2 242 -7 145 -7 180 -6 235 8 195 49 354 186
419 361 47 126 45 315 -6 427 -27 60 -95 133 -152 162 -18 10 -66 26 -108 37
-84 21 -279 24 -468 7z m267 -69 c150 -32 255 -144 289 -309 17 -82 7 -251
-20 -330 -44 -128 -105 -183 -224 -201 -76 -12 -196 1 -251 28 l-36 17 0 392
0 392 53 10 c74 14 128 14 189 1z"/>
<path d="M2741 1000 c-191 -50 -324 -158 -382 -308 -30 -78 -37 -232 -15 -325
42 -179 165 -306 341 -352 60 -15 235 -21 294 -9 23 5 45 24 83 73 28 36 72
84 96 107 39 36 43 43 33 63 -13 23 -34 18 -59 -12 -7 -8 -40 -27 -73 -42 -57
-25 -69 -27 -168 -23 -123 5 -174 23 -244 87 -55 50 -92 131 -108 231 -27 176
32 367 125 405 80 33 248 25 333 -16 43 -21 83 -81 83 -127 0 -15 6 -22 19
-22 15 0 20 11 25 61 6 53 29 140 50 189 5 13 -10 18 -86 28 -133 18 -259 14
-347 -8z"/>
<path d="M4470 998 c0 -4 9 -12 20 -18 40 -21 45 -74 45 -470 0 -396 -5 -447
-45 -473 -11 -6 -20 -14 -20 -17 0 -3 119 -6 264 -6 145 -1 289 -5 319 -8 l55
-7 7 68 c4 37 15 99 25 138 10 38 17 71 16 72 0 0 -10 3 -20 5 -13 2 -22 -6
-30 -28 -21 -56 -56 -93 -122 -125 -57 -28 -75 -32 -151 -33 l-86 -1 -9 34
c-5 19 -8 201 -6 405 4 388 8 425 49 447 10 5 19 13 19 17 0 4 -74 7 -165 7
-91 0 -165 -3 -165 -7z"/>
<path d="M1450 770 c-14 -4 -69 -8 -122 -9 -58 -1 -98 -5 -98 -11 0 -5 7 -10
15 -10 8 0 22 -15 32 -32 16 -29 18 -67 21 -290 4 -277 -5 -360 -39 -381 -10
-6 -19 -15 -19 -18 0 -3 68 -6 150 -6 83 0 150 2 150 4 0 3 -10 13 -21 22 -31
25 -38 84 -38 317 l-1 202 34 16 c55 26 89 29 131 12 21 -9 40 -15 41 -13 6 6
64 150 64 159 0 15 -64 48 -95 48 -24 0 -44 -14 -103 -77 l-74 -78 7 78 c4 42
3 77 -2 76 -4 -1 -19 -5 -33 -9z"/>
<path d="M3635 770 c-11 -5 -66 -9 -122 -9 -95 -1 -126 -10 -88 -25 38 -14 48
-73 53 -306 5 -259 -6 -367 -37 -389 -12 -7 -21 -17 -21 -21 0 -4 65 -7 145
-7 80 0 145 2 145 5 0 3 -10 17 -22 30 -23 24 -23 24 -23 378 0 195 -2 354 -5
353 -3 0 -14 -4 -25 -9z"/>
<path d="M4036 716 l-69 -64 39 -38 c22 -22 52 -55 67 -74 l27 -35 67 67 67
67 -40 43 c-21 24 -49 55 -61 71 -11 15 -22 27 -24 27 -2 -1 -35 -29 -73 -64z"/>
<path d="M5605 771 c-33 -6 -56 -23 -126 -93 -75 -76 -84 -88 -72 -103 12 -17
16 -16 74 15 105 56 236 51 281 -11 18 -23 41 -99 34 -107 -2 -1 -79 -19 -172
-38 -269 -56 -319 -91 -319 -226 0 -59 3 -70 31 -105 38 -46 77 -70 146 -89
75 -20 121 -18 143 6 9 10 51 42 92 71 l75 51 -4 -70 -3 -71 125 6 c69 3 127
7 129 9 2 2 -9 13 -24 26 -37 32 -46 116 -39 353 5 136 3 203 -6 235 -15 55
-72 114 -125 129 -52 15 -189 22 -240 12z m191 -453 c-8 -98 -22 -123 -83
-150 -81 -36 -171 -9 -199 59 -19 45 2 97 48 118 26 12 187 50 232 54 5 1 6
-34 2 -81z"/>
<path d="M7615 771 c-63 -17 -273 -130 -293 -158 -90 -126 -82 -399 14 -511
58 -69 121 -95 237 -100 89 -4 101 -2 150 22 28 14 93 56 142 93 118 89 128
115 129 318 1 134 0 142 -28 198 -31 63 -83 109 -145 127 -49 15 -169 21 -206
11z m74 -121 c90 -45 126 -130 126 -295 0 -123 -17 -198 -49 -220 -24 -18
-105 -19 -161 -4 -53 15 -129 91 -144 144 -20 68 -24 157 -12 235 13 84 35
129 72 147 37 19 124 16 168 -7z"/>
<path d="M1898 198 c-38 -39 -68 -73 -68 -76 0 -2 12 -14 28 -25 15 -12 46
-39 68 -59 23 -21 43 -38 46 -38 3 0 33 32 68 70 l62 71 -68 64 c-38 36 -69
65 -69 64 0 0 -30 -32 -67 -71z"/>
<path d="M4040 203 c-36 -30 -66 -58 -67 -62 -1 -3 27 -37 62 -76 l64 -69 63
59 c35 33 64 63 66 67 2 4 -16 26 -39 50 -23 24 -48 53 -56 66 -9 12 -18 22
-22 22 -3 0 -35 -26 -71 -57z"/>
</g>
</svg>
