<?xml version="1.0" encoding="utf-8"?>
<!-- Generator: Adobe Illustrator 16.0.0, SVG Export Plug-In . SVG Version: 6.00 Build 0)  -->
<!DOCTYPE svg PUBLIC "-//W3C//DTD SVG 1.1//EN" "http://www.w3.org/Graphics/SVG/1.1/DTD/svg11.dtd">
<svg version="1.1" id="Layer_1" xmlns="http://www.w3.org/2000/svg" xmlns:xlink="http://www.w3.org/1999/xlink" x="0px" y="0px"
	 width="300px" height="140px" viewBox="0 0 300 140" enable-background="new 0 0 300 140" xml:space="preserve">
<g>
	<path fill="#808285" d="M193.651,51.417l-17.82-6.867v32.704c6.125-0.434,12.073-1.029,17.82-1.742V51.417z"/>
	<path fill="#808285" d="M127.575,44.55l-17.818,6.867v24.095c5.749,0.713,11.693,1.305,17.818,1.742V44.55z"/>
	<path fill="#DA2128" d="M263.325,36.483c-16.103,5.137-41.761,12.491-61.021,14.052l36.848,13.932v13.744
		c7.586-2.197,14.717-4.805,22.271-7.576l1.496-0.547l-16.432-7.447L263.325,36.483z"/>
	<path fill="#DA2128" d="M101.105,50.536c-19.265-1.562-44.923-8.914-61.024-14.052l16.837,26.157l-16.435,7.448l1.5,0.546
		c7.553,2.771,14.686,5.379,22.271,7.574V64.467L101.105,50.536z"/>
	<path fill="#DA2128" d="M235.424,66.321l-36.492-13.713v22.044C212.89,72.689,225.31,69.934,235.424,66.321"/>
	<polygon fill="#DA2128" points="229.661,86.414 236.174,96.492 236.174,71.941 	"/>
	<path fill="#DA2128" d="M67.98,66.321l36.49-13.713v22.044C90.514,72.689,78.097,69.934,67.98,66.321"/>
	<path fill="#DA2128" d="M69.949,98.475l7.504-11.646L70.35,70.819c20.73,6.823,50.116,10.243,81.352,10.243
		c31.182,0,60.528-3.412,81.252-10.209l-7.084,15.756l7.517,11.895c-21.682,7.424-51.31,11.668-81.685,11.668
		C121.281,110.172,91.626,105.918,69.949,98.475"/>
	<polygon fill="#DA2128" points="73.749,86.414 67.233,96.492 67.233,71.941 	"/>
	<path fill="#FFFFFF" d="M145.915,87.328c-0.911,0.752-1.642,1.463-2.238,2.26c-0.71-0.766-1.633-1.502-2.429-2.072
		c0.669-0.543,1.609-1.459,2.216-2.061C144.264,86.188,144.87,86.711,145.915,87.328"/>
	<path fill="#FFFFFF" d="M153.893,91.742c-1.029,0.664-1.871,1.336-2.646,2.092c-0.657-0.812-1.465-1.678-2.341-2.32
		c0.72-0.529,1.902-1.564,2.525-2.18C152.211,90.26,152.864,91.014,153.893,91.742 M153.893,100.734
		c-1.029,0.672-1.871,1.336-2.646,2.094c-0.657-0.812-1.465-1.648-2.341-2.318c0.72-0.533,1.902-1.562,2.525-2.15
		C152.211,99.279,152.864,100.035,153.893,100.734"/>
	<path fill="#FFFFFF" d="M83.919,96.971L83.919,96.971c1.503,0.266,1.503-2.354,1.503-8.867c0-6.457,0-9.076-1.503-9.771
		c0.48,0.189,0.862,0.316,1.215,0.422c0.382,0.119,0.763,0.213,1.173,0.322c1.171,0.305,2.527,0.562,3.839,0.789
		c1.279,0.227,2.554,0.457,3.47,0.689c4.658,1.174,9.619,3.611,9.619,10.732c0,6.004-4.749,9.855-11.716,8.104L83.919,96.971z
		 M89.054,95.404c1.094,1.65,2.311,2.27,4.377,2.795c2.99,0.76,3.931-0.014,4.658-0.771c0.55-0.566,1.546-2.514,1.546-5.617
		c0-5.572-3.099-9.295-7.562-10.428c-1.018-0.262-2.018-0.332-3.02,0.609V95.404z"/>
	<path fill="#FFFFFF" d="M105.737,101.676c1.248-0.029,1.248-2.131,1.248-6.789c0-4.506,0-6.666-1.445-7.207
		c0,0,3.167,1.152,4.957,0.773c-0.036,0.008-0.13,1.623-0.165,2.682c2.744-3.379,5.36-3.445,5.36-3.445
		c-0.424,1.496-0.837,2.99-1.256,4.482c-0.406-0.258-0.943-0.623-1.698-0.707c-0.855-0.09-1.865,0.219-2.406,3.809
		c0,5.547,0,6.578,1.143,7.26C111.475,102.533,108.91,101.869,105.737,101.676"/>
	<path fill="#FFFFFF" d="M114.923,101.574c1.127-0.795,1.78-1.395,2.654-2.344c0.811,0.963,1.527,1.732,2.551,2.566
		c-0.781,0.684-1.898,1.672-2.521,2.432C116.703,103.129,116.08,102.518,114.923,101.574"/>
	<path fill="#FFFFFF" d="M137.875,101.127c-1.659,1.662-2.253,2.434-3.341,3.391c-1.053,0.93-1.842,0.969-3.03,0.885
		c-6.121-0.457-9.932-4.535-9.932-10.379c0-8.314,8.36-9.088,11.059-8.91c1.239,0.086,2.208,0.264,2.932,0.422
		c0.723,0.164,1.232,0.309,1.504,0.326c0.162,0.006,0.32,0.018,0.486,0.025c-0.362,0.713-1.055,2.656-1.055,4.268
		c0,0.217,0.028,0.43,0.028,0.676c-0.211-0.012-0.418-0.025-0.631-0.035c0-1.553-0.452-2.584-1.935-3.217
		c-1.177-0.498-2.605-0.717-3.575-0.785c-1.062-0.07-2.309,0.047-2.889,0.336c-1.62,0.812-2.235,4.023-2.235,5.424
		c0,6.631,3.544,8.619,7.455,8.881C134.504,102.557,136.551,102.029,137.875,101.127"/>
	<path fill="#FFFFFF" d="M140.699,105.447c1.169-0.143,1.169-1.361,1.169-6.902c0-4.508,0-6.668-1.355-6.902
		c0,0,2.544,0.615,4.804,0.656c-0.145-0.006-0.302,2.686-0.302,6.338c0,5.543,0,6.58,1.077,7.148
		C146.092,105.785,142.655,105.303,140.699,105.447"/>
	<path fill="#FFFFFF" d="M157.343,105.572L157.343,105.572c1.411-0.166,1.411-2.998,1.411-10.049c0-6.99,0-9.822-1.411-10.121
		c0,0,2.92,0.338,6.177,0c-1.474,0.189-1.474,3.023-1.474,10.01c0,2.867,0.178,7.969,0.178,7.969
		c0.391,0.711,1.021,0.783,1.385,0.766c2.317-0.105,5.357-1.199,5.996-2.84c0.178-0.467,0.356-0.936,0.539-1.402
		c-0.509,1.812-0.932,5.191-0.932,5.191C164.098,105.836,157.343,105.572,157.343,105.572"/>
	<path fill="#FFFFFF" d="M181.157,104.42c0.06,0.014,0.124-1.877,0.124-1.877l-3.886,2.018c-1.46,0.707-5.443,0.441-5.443-2.846
		c0-2.523,1.46-3.113,3.134-3.76c2.158-0.838,4.324-1.117,6.283-1.938c0-1.098-0.088-3.188-3.237-2.914
		c-2.108,0.188-3.478,1.236-3.994,1.467c-0.126,0.057-0.241-0.113-0.421,0.113c1.022-1.266,2.458-2.871,3.035-3.34
		c0.886-0.713,1.771-0.854,2.694-0.938c3.127-0.287,5.315,0.316,5.315,4.125c0,1.486-0.153,3.027-0.153,4.518
		c0,3.562,0.033,4.838,1.301,5.135C185.909,104.184,182.995,104.691,181.157,104.42 M178.277,102.451
		c1.593-0.143,2.759-1.225,2.943-1.84c0.148-0.512,0.148-1.334,0.148-1.334c-0.489-1.906-2.846-1.389-4.251-0.83
		c-0.917,0.367-1.522,1.025-1.522,1.998C175.595,101.877,176.999,102.557,178.277,102.451"/>
	<path fill="#FFFFFF" d="M191.928,83.246c-0.064-0.074-0.309,3.672-0.309,8.484c1.221-0.758,2.805-1.891,3.883-2.342
		c2.345-0.982,6.773-0.473,6.773,4.947c0,2.684-1.258,4.953-2.983,6.455c-1.856,1.607-4.715,2.73-7.07,3.014
		c-0.85,0.1-2.456,0.037-3.671-0.186c-0.208,0.133-0.416,0.266-0.62,0.4c0.214-1.455,0.404-5.281,0.404-10.119
		c0-7.188,0-10.781-1.404-11.084L191.928,83.246z M194.545,102.154c0.702-0.086,2.131-0.479,2.733-1.018
		c1.304-1.164,1.467-3.832,1.467-4.779c0-3.688-1.849-5.088-4.609-4.75c-0.729,0.088-1.413,0.354-1.728,0.695
		c-0.755,0.818-0.789,5.119-0.789,6.002c0,1.77,0.09,2.908,0.123,2.949C192.24,101.914,193.288,102.309,194.545,102.154"/>
	<path fill="#FFFFFF" d="M214.504,99.117c-1.332,1.055-2.366,1.449-3.555,1.623c-4.55,0.656-6.938-1.75-6.938-5.893
		c0-2.496,1.078-4.869,1.895-5.475c1.11-0.822,2.882-1.834,4.139-2.586c0.958-0.574,1.795-0.883,2.668-1.012
		c4.599-0.689,6.702,1.092,6.702,5.443c0,0.277-0.345,3.369-0.921,4.416C217.99,96.557,216.023,97.92,214.504,99.117 M207.61,93.52
		c0,4.111,2.374,5.232,5.509,4.771c1.461-0.217,1.863-0.607,2.231-2.025c0.202-0.771,0.332-1.859,0.332-3.107
		c0-2.676-0.83-5.871-4.679-5.305c-0.364,0.053-1.652,0.303-2.212,0.781C208.038,89.289,207.61,91.543,207.61,93.52"/>
	<path fill="#808285" d="M151.714,34.566l-19.155,9.38v33.599c6.266,0.355,12.646,0.58,19.14,0.58c6.47,0,12.825-0.225,19.072-0.576
		V43.946L151.714,34.566z"/>
	<path fill="#FFFFFF" d="M167.841,74.868c-5.316,0.286-10.718,0.448-16.127,0.448c-5.377,0-10.836-0.16-16.224-0.467V45.771
		l16.224-7.942l16.127,7.942V74.868z"/>
	<polygon fill="#808285" points="154.839,61.322 154.839,70.076 148.489,70.076 148.489,61.322 139.736,61.322 139.736,54.976 
		148.489,54.976 148.489,46.222 154.839,46.222 154.839,54.976 163.592,54.976 163.592,61.322 	"/>
</g>
</svg>
