<svg id="Layer_1" data-name="Layer 1" xmlns="http://www.w3.org/2000/svg" viewBox="0 0 91.98 70.7"><defs><style>.cls-1{fill:#231f20;}</style></defs><title>2017-10-31_Web_Icons</title><path class="cls-1" d="M87.12,0H4.86A5.06,5.06,0,0,0-.2,5.06V65.64A5.06,5.06,0,0,0,4.86,70.7H87.12a5.06,5.06,0,0,0,5.06-5.06V5.06A5.06,5.06,0,0,0,87.12,0ZM6.58,3.54a5.85,5.85,0,0,1,2.24-.42H83.15a5.85,5.85,0,0,1,2.24.42L86.62,4,48.4,40.65l-.05,0a4.28,4.28,0,0,1-2.46.79,3.91,3.91,0,0,1-2.47-.87L5.36,4ZM2.92,9A2.72,2.72,0,0,1,3.13,7.8l.52-1,28.2,27.05L2.92,63.27ZM85.65,66.91a6,6,0,0,1-2.62.55H8.83a6.25,6.25,0,0,1-3.19-1l-1-.55L34.11,36l7.36,7.1.2.2A7.22,7.22,0,0,0,46,44.68a7.34,7.34,0,0,0,4.39-1.49l7.32-7.06,29,30.29Zm3.41-4.51h-.27l-.06.13-.54,1.09L59.91,33.94,87.5,7.45l1.38-1.3.06,1.91a1.64,1.64,0,0,0,0,.26,3.24,3.24,0,0,1,.08.59Z"/></svg>