<svg id="Layer_1" data-name="Layer 1" xmlns="http://www.w3.org/2000/svg" viewBox="0 0 147.67 275"><defs><style>.cls-1{fill:gray;}</style></defs><title>facebook</title><path class="cls-1" d="M172.6,288H114.12V167.45H73.28V110.93h41.07c0-2.8,0-5.59,0-8.39,0-6.53-.09-13.28.08-20A131.25,131.25,0,0,1,116,63.53C118.85,47,126.69,34,139.24,24.95c10.57-7.58,23.45-11.58,38.27-11.9,8-.18,16.05.18,23.84.53l1.87.08c3.41.17,6.75.54,10,.9,1.31.15,2.6.29,3.88.42l3.86.39v51.1h-7.68c-2.57,0-5.15,0-7.72,0-5.56,0-11.3-.08-16.91.11-11.06.4-15.69,4.65-16,14.68-.2,7.5-.32,22.35-.37,29.68,8,0,25.14,0,33.83,0h14.06l-3.35,25.72c-1.19,9.15-2.36,18.2-3.56,27.31l-.49,3.73H172.6Zm-49.91-8.57H164V159.08h41.23c1-7.85,2-15.67,3.07-23.57l2.09-16.05h-4.26c-11.58.05-38.18,0-38.18,0h-4.3l0-4.3c0-.24.12-23.93.4-34.18.41-14.71,8.57-22.45,24.23-23h0c5.78-.19,11.63-.15,17.27-.11l6.77,0V23.09h-.12c-3.1-.35-6.31-.7-9.44-.86L201,22.14c-7.65-.34-15.57-.69-23.27-.52-13.26.28-24.2,3.65-33.46,10.29C133.58,39.58,126.9,50.72,124.39,65A122.19,122.19,0,0,0,123,82.81c-.16,6.53-.11,13.21-.07,19.68,0,3,0,6.08,0,9.12v7.9H81.86v39.38h40.84Z" transform="translate(-73.28 -13)"/></svg>