<svg id="Layer_1" data-name="Layer 1" xmlns="http://www.w3.org/2000/svg" viewBox="0 0 261 261"><defs><style>.cls-1{fill:gray;}</style></defs><title>instagram</title><path class="cls-1" d="M182,261H79A79.09,79.09,0,0,1,0,182V79A79.09,79.09,0,0,1,79,0H182a79.09,79.09,0,0,1,79,79V182A79.09,79.09,0,0,1,182,261ZM79,9A70.08,70.08,0,0,0,9,79V182a70.08,70.08,0,0,0,70,70H182a70.08,70.08,0,0,0,70-70V79A70.08,70.08,0,0,0,182,9Zm53,186a60,60,0,1,1,60-60A60,60,0,0,1,132,195Zm0-111a51,51,0,1,0,51,51A51,51,0,0,0,132,84Zm75-39a15,15,0,1,1-15,15A15,15,0,0,1,207,45Z"/></svg>