<svg id="Layer_1" data-name="Layer 1" xmlns="http://www.w3.org/2000/svg" viewBox="0 0 63.63 107.86"><defs><style>.cls-1{fill:#010101;}</style></defs><title>2017-10-31_Web_Icons</title><path class="cls-1" d="M54.63,0H9.16A9.1,9.1,0,0,0,0,9.16V98.69a9.1,9.1,0,0,0,9.16,9.16H54.46a9.1,9.1,0,0,0,9.16-9.16V9.16A9,9,0,0,0,54.63,0ZM2.82,9.16A6.51,6.51,0,0,1,9.34,2.64H54.63a6.51,6.51,0,0,1,6.52,6.52v2.47H3V9.16ZM61,14.45V86.71H2.82V14.45Zm-6.34,90.76H9.16a6.51,6.51,0,0,1-6.52-6.52V89.35H60.8v9.34A6.21,6.21,0,0,1,54.63,105.21Z"/><path class="cls-1" d="M31.9,101.69A5.11,5.11,0,1,1,37,96.58,5,5,0,0,1,31.9,101.69Zm0-7.23a2.29,2.29,0,1,0,2.29,2.29A2.33,2.33,0,0,0,31.9,94.46Z"/><path class="cls-1" d="M38.42,7.4h-13a.76.76,0,0,1-.7-.7h0a.76.76,0,0,1,.7-.7h13a.76.76,0,0,1,.7.7h0A.76.76,0,0,1,38.42,7.4Z"/></svg>