<svg id="Layer_1" data-name="Layer 1" xmlns="http://www.w3.org/2000/svg" viewBox="0 -12.42 334.49 116.03"><title>Routine_Icons</title><path d="M45.3,91.19A44.24,44.24,0,0,1,15.73,80.12l0,0C-2,63.7-5.11,38.23,8.27,19.51,19.28,4.08,34.64-2.24,53.86.7c3.35.51,4.16,2.47,4.26,4a4.57,4.57,0,0,1-3.25,4.55A39.28,39.28,0,0,0,32.59,58.44C36.17,69.05,43.27,76.91,53.7,81.8l.93.4a4.21,4.21,0,0,1,2.78,4.52,4.29,4.29,0,0,1-3.89,3.8A51.56,51.56,0,0,1,45.3,91.19ZM18.23,77.29c9.58,8.32,21.55,11.61,34.69,9.51.69-.12.71-.28.74-.53s.05-.36-.55-.62l-1-.44C40.71,79.87,32.94,71.27,29,59.65A43,43,0,0,1,53.41,5.79c1-.41,1-.57.94-.84s-.23-.39-1.05-.52c-17.73-2.71-31.85,3.1-42,17.27C-.91,38.85,2,62.22,18.23,77.29Z"/><path d="M95.22,17h5L127,54.73c1.79,2.61,4.34,7.08,4.34,7.08h.13s-.43-4.32-.43-7.08V17h5.13V69.41h-5L104.39,31.7c-1.79-2.62-4.32-7.08-4.32-7.08h-.15s.44,4.31.44,7.08V69.41H95.22Z"/><path d="M155,17h5.14V69.41H155Z"/><path d="M201.94,16.11c12.15,0,18.65,6.11,18.65,6.11l-2.77,3.89a25.69,25.69,0,0,0-15.65-5.23c-12.67,0-21.24,9.76-21.24,22.21,0,12.89,8.86,22.43,20.79,22.43,10.21,0,16.47-7.66,16.47-7.66V49h-8.94V44.37h13.86v25h-4.77v-4c0-1.13.07-2.25.07-2.25h-.13a23.48,23.48,0,0,1-17.08,7.08c-14.31,0-25.64-11.55-25.64-27.13C175.56,28.05,186.89,16.11,201.94,16.11Z"/><path d="M239.22,17h5.13V40.85h30.42V17h5.15V69.41h-5.15V45.49H244.35V69.41h-5.13Z"/><path d="M310.57,21.64H291.71V17h42.78v4.64H315.71V69.41h-5.14Z"/></svg>