<svg id="Layer_1" data-name="Layer 1" xmlns="http://www.w3.org/2000/svg" viewBox="0 0 264 193.24"><defs><style>.cls-1{fill:gray;}</style></defs><title>youtube</title><path class="cls-1" d="M255.07,254.24H38.93A24,24,0,0,1,15,230.31V84.93A24,24,0,0,1,38.93,61H255.07A24,24,0,0,1,279,84.93V230.31A24,24,0,0,1,255.07,254.24ZM38.93,69.16A15.78,15.78,0,0,0,23.16,84.93V230.31a15.78,15.78,0,0,0,15.77,15.77H255.07a15.78,15.78,0,0,0,15.77-15.77V84.93a15.78,15.78,0,0,0-15.77-15.77Z" transform="translate(-15 -61)"/><path class="cls-1" d="M100.73,213.21V106.35l111.51,51.11Zm8.16-94.14V200l84.45-42.22Z" transform="translate(-15 -61)"/></svg>